<svg xmlns="http://www.w3.org/2000/svg" viewBox="0 0 100 100" width="50" height="50"  xmlns:v="https://vecta.io/nano"><circle cx="77" cy="13" r="1" fill="#f1bc19"/><circle cx="50" cy="50" r="37" fill="#e4e4f9"/><circle cx="83" cy="15" r="4" fill="#f1bc19"/><circle cx="87" cy="24" r="2" fill="#8889b9"/><g fill="#fbcd59"><circle cx="81" cy="76" r="2"/><circle cx="15" cy="63" r="4"/></g><circle cx="25" cy="87" r="2" fill="#8889b9"/><circle cx="79.5" cy="33.5" r="1.5" fill="#fff"/><path fill="#cbc9bc" d="M41.546 43.147l14.089-14.089L70.288 43.71 56.199 57.8z"/><path fill="#472b29" d="M56.201 58.299a.5.5 0 0 1-.354-.146L41.194 43.5a.5.5 0 0 1-.146-.354c0-.133.053-.26.146-.354l14.089-14.089a.5.5 0 0 1 .707 0l14.653 14.652a.5.5 0 0 1 .146.354c0 .133-.053.26-.146.354L56.554 58.152c-.097.098-.225.147-.353.147zM42.255 43.146l13.946 13.945L69.583 43.71 55.637 29.765 42.255 43.146z"/><path fill="#e1e0d8" d="M29.968 39.147l14.089-14.089L58.71 39.71 44.621 53.8z"/><path fill="#472b29" d="M44.622 54.299a.5.5 0 0 1-.354-.146L29.615 39.5a.5.5 0 0 1-.146-.354c0-.133.053-.26.146-.354l14.089-14.089a.5.5 0 0 1 .707 0l14.653 14.652a.5.5 0 0 1 .146.354c0 .133-.053.26-.146.354L44.975 54.152c-.098.098-.225.147-.353.147zM30.676 39.146l13.946 13.945L58.004 39.71 44.058 25.765 30.676 39.146z"/><path fill="#f6cca4" d="M35,72.3c-4.025,0-7.3-3.229-7.3-7.196V35.7h44.6v29.403c0,3.968-3.274,7.196-7.3,7.196H35z"/><path d="M71.6 36.4v28.704c0 3.582-2.961 6.496-6.6 6.496H35c-3.639 0-6.6-2.914-6.6-6.496V36.4h43.2m1.375-1.4h-45.95l-.025.493v29.61C27 69.447 30.6 73 35 73h30c4.4 0 8-3.553 8-7.896v-29.61c0-.167-.015-.33-.025-.494h0zM68.5 47.375a.5.5 0 0 1-.5-.5V44a.5.5 0 1 1 1 0v2.875a.5.5 0 0 1-.5.5zm0-5.875a.5.5 0 0 1-.5-.5v-2a.5.5 0 1 1 1 0v2a.5.5 0 0 1-.5.5z" fill="#472b29"/><path fill="#bd977c" d="M57.5 72.5v-15h-.031l-3.617 3.362-3.615-3.362h-.474l-3.616 3.362-3.615-3.362H42.5v15z"/><path fill="#472b29" d="M58 73H42V57h.697l.175.134 3.275 3.046L49.566 57h.867l3.419 3.18 3.42-3.18h.696l.032.5V73zm-15-1h14V58.619l-3.147 2.926L50.04 58h-.08l-3.813 3.545L43 58.618V72z"/><path fill="#836f61" d="M55.5 46.5h-11a2 2 0 0 1-2-2h0a2 2 0 0 1 2-2h11a2 2 0 0 1 2 2h0a2 2 0 0 1-2 2z"/><path fill="#472b29" d="M55.5 47h-11c-1.378 0-2.5-1.121-2.5-2.5s1.122-2.5 2.5-2.5h11c1.378 0 2.5 1.121 2.5 2.5S56.878 47 55.5 47zm-11-4a1.5 1.5 0 1 0 0 3h11a1.5 1.5 0 1 0 0-3h-11z"/><path fill="#c29b67" d="M23.5 29.5l4 6"/><path fill="#472b29" d="M27.5 36a.5.5 0 0 1-.417-.223l-4-6a.5.5 0 0 1 .139-.693.5.5 0 0 1 .693.139l4 6a.5.5 0 0 1-.139.693.49.49 0 0 1-.276.084z"/><path fill="#c29b67" d="M76.5 29.5l-4 6"/><path d="M72.5 36a.5.5 0 0 1-.416-.777l4-6a.5.5 0 0 1 .693-.139.5.5 0 0 1 .139.693l-4 6A.5.5 0 0 1 72.5 36zM64 69H36c-2.757 0-5-2.243-5-5V39a.5.5 0 1 1 1 0v25c0 2.206 1.794 4 4 4h28c2.206 0 4-1.794 4-4V49.625a.5.5 0 1 1 1 0V64c0 2.757-2.243 5-5 5z" fill="#472b29"/></svg>