<svg xmlns="http://www.w3.org/2000/svg" xmlns:xlink="http://www.w3.org/1999/xlink" viewBox="0 0 100 100" width="50" height="50" xmlns:v="https://vecta.io/nano"><style><![CDATA[.B{fill:#472b29}.C{fill:#00ac9c}]]></style><path fill="#f1bc19" d="M77 12a1 1 0 1 0 0 2 1 1 0 1 0 0-2z"/><path fill="#e4e4f9" d="M50 13a37 37 0 1 0 0 74 37 37 0 1 0 0-74z"/><path fill="#f1bc19" d="M83 11a4 4 0 1 0 0 8 4 4 0 1 0 0-8z"/><path fill="#8889b9" d="M87 22a2 2 0 1 0 0 4 2 2 0 1 0 0-4z"/><path fill="#fbcd59" d="M81 74a2 2 0 1 0 0 4 2 2 0 1 0 0-4zM15 59a4 4 0 1 0 0 8 4 4 0 1 0 0-8z"/><path fill="#8889b9" d="M25 85a2 2 0 1 0 0 4 2 2 0 1 0 0-4z"/><path fill="#fff" d="M18.5 49a2.5 2.5 0 1 0 0 5 2.5 2.5 0 1 0 0-5zm61-17a1.5 1.5 0 1 0 0 3 1.5 1.5 0 1 0 0-3z"/><path fill="#78cdd4" d="M66.5 53.5h-14V39.602c0-.69.1-1.375.297-2.036L55.5 28.5h8l2.703 9.066a7.13 7.13 0 0 1 .297 2.036V53.5z"/><path fill="#fff" d="M65.736 36H53.264l-.467 1.566a7.13 7.13 0 0 0-.297 2.037V53.5h14V39.603c0-.69-.1-1.375-.297-2.037L65.736 36z"/><path d="M66.5 54h-14a.5.5 0 0 1-.5-.5V39.603a7.62 7.62 0 0 1 .318-2.179l2.703-9.066A.5.5 0 0 1 55.5 28h8a.5.5 0 0 1 .479.357l2.703 9.066c.211.708.318 1.441.318 2.18V53.5a.5.5 0 0 1-.5.5zM53 53h13V39.603c0-.642-.093-1.279-.276-1.894L63.127 29h-7.255l-2.597 8.709c-.182.614-.275 1.252-.275 1.894V53z" class="B"/><path fill="#ceccbe" d="M54.5 26.5h10v3h-10z"/><path d="M64.5 30h-10a.5.5 0 0 1-.5-.5v-3a.5.5 0 0 1 .5-.5h10a.5.5 0 0 1 .5.5v3a.5.5 0 0 1-.5.5zM55 29h9v-2h-9v2z" class="B"/><path fill="#f37e98" d="M40 36.5a7.5 7.5 0 1 0 0 15 7.5 7.5 0 1 0 0-15z"/><path d="M40 52a8.01 8.01 0 0 1-8-8 8.01 8.01 0 0 1 8-8 8.01 8.01 0 0 1 8 8 8.01 8.01 0 0 1-8 8zm0-15a7.01 7.01 0 0 0-7 7 7.01 7.01 0 0 0 7 7 7.01 7.01 0 0 0 7-7 7.01 7.01 0 0 0-7-7zm3.307 2.854c-.053 0-.105-.017-.15-.051A5.21 5.21 0 0 0 40 38.75a.25.25 0 1 1 0-.5 5.7 5.7 0 0 1 3.458 1.155.25.25 0 0 1-.151.449zm-8.114 1.721c-.042 0-.083-.01-.122-.031a.25.25 0 0 1-.097-.341 5.73 5.73 0 0 1 3.364-2.71.25.25 0 1 1 .145.479 5.23 5.23 0 0 0-3.072 2.476c-.045.081-.13.127-.218.127zM34.5 44.25a.25.25 0 0 1-.25-.25c0-.565.082-1.124.244-1.661a.25.25 0 1 1 .479.145c-.147.49-.222 1-.222 1.517-.001.137-.113.249-.251.249z" class="B"/><path fill="#f9e65c" d="M60.615 52.1l-13.911 5.366c-1.054.407-2.238-.118-2.644-1.172l-3.846-9.971c-.406-1.054.118-2.238 1.172-2.644l13.911-5.366c1.054-.407 2.238.118 2.644 1.172l3.846 9.971c.406 1.053-.119 2.237-1.172 2.644z"/><path d="M45.971 58.103a2.55 2.55 0 0 1-2.378-1.629l-3.846-9.972a2.55 2.55 0 0 1 1.458-3.291l13.911-5.365c.634-.245 1.326-.228 1.947.048s1.099.776 1.343 1.411l3.846 9.972a2.53 2.53 0 0 1-1.458 3.29l-13.91 5.366c-.3.115-.609.17-.913.17zm10.062-19.428a1.54 1.54 0 0 0-.557.104l-13.911 5.365a1.55 1.55 0 0 0-.885 1.998l3.846 9.972a1.55 1.55 0 0 0 1.999.885l13.91-5.366c.385-.148.689-.438.856-.814a1.54 1.54 0 0 0 .029-1.183l-3.846-9.972c-.149-.385-.438-.689-.816-.856-.2-.089-.412-.133-.625-.133z" class="B"/><path fill="#60be92" d="M32.354 72.3a1.75 1.75 0 0 1-1.729-1.521L27.88 49.7h44.24l-2.745 21.077a1.75 1.75 0 0 1-1.729 1.522H32.354z"/><path d="M71.323 50.4l-2.642 20.288a1.05 1.05 0 0 1-1.035.913H32.354a1.05 1.05 0 0 1-1.035-.913L28.677 50.4h42.646m1.594-1.4H27.083l2.847 21.868c.16 1.22 1.197 2.132 2.424 2.132h35.291c1.228 0 2.265-.912 2.424-2.132L72.917 49z" class="B"/><path fill="#60be92" d="M26.212 50.3c-.282 0-.512-.229-.512-.512v-3.576c0-.282.229-.512.512-.512h47.576c.282 0 .512.229.512.512v3.576c0 .282-.229.512-.512.512H26.212z"/><path d="M73.6 46.4v3.2H26.4v-3.2h47.2m.188-1.4H26.212A1.21 1.21 0 0 0 25 46.212v3.576A1.21 1.21 0 0 0 26.212 51h47.576A1.21 1.21 0 0 0 75 49.788v-3.576A1.21 1.21 0 0 0 73.788 45h0z" class="B"/><use xlink:href="#B" class="C"/><use xlink:href="#C" class="B"/><use xlink:href="#B" x="8" class="C"/><use xlink:href="#C" x="8" class="B"/><use xlink:href="#B" x="16" class="C"/><use xlink:href="#C" x="16" class="B"/><use xlink:href="#B" x="24" class="C"/><g class="B"><use xlink:href="#C" x="24"/><path d="M64 46.25a.25.25 0 0 1-.25-.25v-2.375a.25.25 0 1 1 .5 0V46a.25.25 0 0 1-.25.25zm0-4.292a.25.25 0 0 1-.25-.25v-2.319a9.66 9.66 0 0 0-.372-2.655l-.369-1.29a.25.25 0 0 1 .171-.309c.133-.042.271.039.309.172l.369 1.29c.26.908.391 1.848.391 2.792v2.319c.001.138-.111.25-.249.25zm-1.348-8.424c-.109 0-.209-.071-.24-.182l-.652-2.284a.25.25 0 0 1 .171-.309c.132-.042.271.039.309.172l.652 2.284a.25.25 0 0 1-.171.309c-.023.007-.046.01-.069.01zM66.5 69c-.021 0-.042-.001-.063-.004a.5.5 0 0 1-.434-.558l.276-2.213a.5.5 0 0 1 .558-.435.5.5 0 0 1 .434.558l-.276 2.213A.5.5 0 0 1 66.5 69zm.545-4.354c-.021 0-.042-.001-.063-.004a.5.5 0 0 1-.434-.558l.834-6.678c.035-.273.286-.478.558-.434a.5.5 0 0 1 .434.558l-.834 6.677a.5.5 0 0 1-.495.439zm1.108-8.866c-.021 0-.042-.001-.063-.004a.5.5 0 0 1-.434-.559l.348-2.78c.035-.273.286-.479.558-.434a.5.5 0 0 1 .434.559l-.348 2.78a.5.5 0 0 1-.495.438z"/></g><defs ><path id="B" d="M38 67.3a1.3 1.3 0 0 1-1.3-1.3V56a1.3 1.3 0 0 1 2.6 0v10a1.3 1.3 0 0 1-1.3 1.3z"/><path id="C" d="M38 55.4a.6.6 0 0 1 .6.6v10a.6.6 0 1 1-1.2 0V56a.6.6 0 0 1 .6-.6m0-1.4a2 2 0 0 0-2 2v10a2 2 0 1 0 4 0V56a2 2 0 0 0-2-2h0z"/></defs></svg>