<svg xmlns="http://www.w3.org/2000/svg" viewBox="0 0 100 100" width="50" height="50"  xmlns:v="https://vecta.io/nano"><path fill="#ee3e54" d="M13 27a2 2 0 1 0 0 4 2 2 0 1 0 0-4z"/><path fill="#f1bc19" d="M77 12a1 1 0 1 0 0 2 1 1 0 1 0 0-2z"/><path fill="#fce0a2" d="M50,13c-20.434,0-37,16.566-37,37s16.566,37,37,37s37-16.566,37-37S70.434,13,50,13z"/><path fill="#f1bc19" d="M83 11a4 4 0 1 0 0 8 4 4 0 1 0 0-8z"/><path fill="#ee3e54" d="M87 22a2 2 0 1 0 0 4 2 2 0 1 0 0-4z"/><path fill="#fbcd59" d="M81 74a2 2 0 1 0 0 4 2 2 0 1 0 0-4zM15 59a4 4 0 1 0 0 8 4 4 0 1 0 0-8z"/><path fill="#ee3e54" d="M25 85a2 2 0 1 0 0 4 2 2 0 1 0 0-4z"/><path fill="#fff" d="M18.5,48c-1.379,0-2.5,1.121-2.5,2.5s1.121,2.5,2.5,2.5s2.5-1.121,2.5-2.5S19.879,48,18.5,48z"/><path fill="#f1bc19" d="M21 66a1 1 0 1 0 0 2 1 1 0 1 0 0-2z"/><path fill="#fff" d="M80 33a1 1 0 1 0 0 2 1 1 0 1 0 0-2z"/><path fill="#f4989e" d="M64.781 25.5H53.5a1 1 0 1 0 0 2h6a1 1 0 0 1 1 1h0a1 1 0 0 1-1 1h-6a1 1 0 1 0 0 2h6a1 1 0 0 1 1 1h0a1 1 0 0 1-1 1h-6a1 1 0 1 0 0 2h6a1 1 0 0 1 1 1h0a1 1 0 0 1-1 1h-6a1 1 0 1 0 0 2h6a1 1 0 0 1 1 1h0a1 1 0 0 1-1 1h-6a1 1 0 1 0 0 2h6a1 1 0 0 1 1 1h0a1 1 0 0 1-1 1h-6a1 1 0 1 0 0 2h6a1 1 0 0 1 1 1h0a1 1 0 0 1-1 1h-6a1 1 0 1 0 0 2h7l.119.144c1.862 2.248 2.881 7.075 2.881 9.993v10.22c0 1.308.941 2.499 2.242 2.629A2.5 2.5 0 0 0 68.5 72V29.219a3.72 3.72 0 0 0-3.719-3.719z"/><path fill="#472b29" d="M65.993 75a3.05 3.05 0 0 1-.301-.015C64.183 74.833 63 73.46 63 71.858v-10.22c0-3.029-1.045-7.558-2.735-9.637H53.5a1.5 1.5 0 1 1 0-3h6a.5.5 0 1 0 0-1.001h-6a1.5 1.5 0 1 1 0-3h6a.5.5 0 1 0 0-1h-6a1.5 1.5 0 1 1 0-3h6a.5.5 0 1 0 0-1h-6a1.5 1.5 0 1 1 0-3h6a.5.5 0 1 0 0-1h-6a1.5 1.5 0 1 1 0-3h6a.5.5 0 1 0 0-1h-6a1.5 1.5 0 1 1 0-3h6a.5.5 0 1 0 0-1h-6a1.5 1.5 0 1 1 0-3h11.281C67.107 25 69 26.893 69 29.219V72c0 .846-.36 1.657-.988 2.225-.553.5-1.275.775-2.019.775zM53.5 50a.5.5 0 1 0 0 1h7.235l.27.325C63.048 53.792 64 58.937 64 61.637v10.22c0 1.095.787 2.031 1.792 2.132a1.98 1.98 0 0 0 1.549-.506A2 2 0 0 0 68 72V29.219C68 27.444 66.556 26 64.781 26H53.5a.5.5 0 1 0 0 1h6a1.5 1.5 0 1 1 0 3h-6a.5.5 0 1 0 0 1h6a1.5 1.5 0 1 1 0 3h-6a.5.5 0 1 0 0 1h6a1.5 1.5 0 1 1 0 3h-6a.5.5 0 1 0 0 1h6a1.5 1.5 0 1 1 0 3h-6a.5.5 0 1 0 0 1h6a1.5 1.5 0 1 1 0 3h-6a.5.5 0 1 0 0 1h6a1.5 1.5 0 1 1 0 3h-6z"/><path fill="#a2b3cb" d="M36.5 52.5v8.944c-.883-.597-1.906-.944-3-.944-3.314 0-6 3.134-6 7s2.686 7 6 7 6-3.134 6-7v-15h-3zm-3 19c-1.657 0-3-1.791-3-4s1.343-4 3-4 3 1.791 3 4-1.343 4-3 4z"/><path fill="#472b29" d="M33.5 75c-3.584 0-6.5-3.365-6.5-7.5s2.916-7.5 6.5-7.5a5.74 5.74 0 0 1 2.5.581V52h4v15.5c0 4.135-2.916 7.5-6.5 7.5zm0-14c-3.032 0-5.5 2.916-5.5 6.5s2.468 6.5 5.5 6.5 5.5-2.916 5.5-6.5V53h-2v9.386l-.78-.528c-.83-.561-1.771-.858-2.72-.858zm0 11c-1.93 0-3.5-2.019-3.5-4.5s1.57-4.5 3.5-4.5 3.5 2.019 3.5 4.5-1.57 4.5-3.5 4.5zm0-8c-1.379 0-2.5 1.57-2.5 3.5s1.121 3.5 2.5 3.5 2.5-1.57 2.5-3.5-1.121-3.5-2.5-3.5z"/><path fill="#a2b3cb" d="M48.5 60.5c-1.094 0-2.117.347-3 .944V43.046c0-7.546-3-18.546-3-18.546h-3s-3 11-3 18.214V53.5l6 2.667V67.5c0 3.866 2.686 7 6 7s6-3.134 6-7-2.686-7-6-7zm0 11c-1.657 0-3-1.791-3-4s1.343-4 3-4 3 1.791 3 4-1.343 4-3 4z"/><g fill="#472b29"><path d="M48.5 75c-3.584 0-6.5-3.365-6.5-7.5V56.491l-6-2.667v-11.11c0-7.198 2.895-17.894 3.018-18.345l.1-.369h3.764l.101.368C43.013 24.479 46 35.52 46 43.046v17.535A5.74 5.74 0 0 1 48.5 60c3.584 0 6.5 3.365 6.5 7.5S52.084 75 48.5 75zM37 53.175l6 2.667V67.5c0 3.584 2.468 6.5 5.5 6.5s5.5-2.916 5.5-6.5-2.468-6.5-5.5-6.5c-.949 0-1.89.297-2.72.858l-.78.528v-19.34c0-6.622-2.37-16.073-2.885-18.046h-2.23C39.37 26.97 37 36.386 37 42.714v10.461zM48.5 72c-1.93 0-3.5-2.019-3.5-4.5s1.57-4.5 3.5-4.5 3.5 2.019 3.5 4.5-1.57 4.5-3.5 4.5zm0-8c-1.379 0-2.5 1.57-2.5 3.5s1.121 3.5 2.5 3.5 2.5-1.57 2.5-3.5-1.121-3.5-2.5-3.5z"/><path d="M45.5 56.75a.25.25 0 0 1-.247-.213l-3.021-20.125a.25.25 0 0 1 .21-.284c.146-.021.264.074.284.21l3.021 20.125a.25.25 0 0 1-.21.284.24.24 0 0 1-.037.003zm-3.396-22.375a.25.25 0 0 1-.247-.209l-.729-4.375a.25.25 0 0 1 .206-.288c.132-.024.265.069.288.206l.729 4.375a.25.25 0 0 1-.206.288c-.013.002-.027.003-.041.003zm-1.083-6.5a.25.25 0 0 1-.247-.209l-.521-3.125a.25.25 0 0 1 .206-.288c.133-.023.266.069.288.206l.521 3.125a.25.25 0 0 1-.206.288c-.014.002-.028.003-.041.003z"/><circle cx="41" cy="52" r="1"/><circle cx="66" cy="71" r="1"/><path d="M63.5 50.75a.25.25 0 0 1-.25-.25v-9.125a.25.25 0 1 1 .5 0V50.5a.25.25 0 0 1-.25.25zm0-11.625a.25.25 0 0 1-.25-.25v-5.5a.25.25 0 1 1 .5 0v5.5a.25.25 0 0 1-.25.25zm0-7.875a.25.25 0 0 1-.25-.25v-3.5a.25.25 0 1 1 .5 0V31a.25.25 0 0 1-.25.25z"/></g></svg>