<svg xmlns="http://www.w3.org/2000/svg" viewBox="0 0 100 100" width="50" height="50"  xmlns:v="https://vecta.io/nano"><path fill="#78a0cf" d="M13 27a2 2 0 1 0 0 4 2 2 0 1 0 0-4z"/><path fill="#f1bc19" d="M77 12a1 1 0 1 0 0 2 1 1 0 1 0 0-2z"/><path fill="#cee1f4" d="M50 13a37 37 0 1 0 0 74 37 37 0 1 0 0-74z"/><path fill="#f1bc19" d="M83 11a4 4 0 1 0 0 8 4 4 0 1 0 0-8z"/><path fill="#78a0cf" d="M87 22a2 2 0 1 0 0 4 2 2 0 1 0 0-4z"/><path fill="#fbcd59" d="M81 74a2 2 0 1 0 0 4 2 2 0 1 0 0-4zM15 59a4 4 0 1 0 0 8 4 4 0 1 0 0-8z"/><path fill="#78a0cf" d="M25 85a2 2 0 1 0 0 4 2 2 0 1 0 0-4z"/><path fill="#fff" d="M18.5 51a2.5 2.5 0 1 0 0 5 2.5 2.5 0 1 0 0-5z"/><path fill="#f1bc19" d="M21 66a1 1 0 1 0 0 2 1 1 0 1 0 0-2z"/><path fill="#fff" d="M80 33a1 1 0 1 0 0 2 1 1 0 1 0 0-2z"/><path fill="#fddbbc" d="M49.885 70.731l16.912-8.528c1.879-.867 3.035-3.325 2.313-5.348-.578-1.735-2.168-2.746-3.903-2.746-.578 0-1.012.145-1.59.289l-13.876 5.637"/><path fill="#472b29" d="M49.887 71.431a.7.7 0 0 1-.316-1.325l16.911-8.527c1.644-.759 2.554-2.852 1.969-4.488-.464-1.392-1.735-2.281-3.243-2.281-.389 0-.698.081-1.127.192l-.293.075-13.782 5.606a.7.7 0 1 1-.527-1.297l14.249-5.739c.469-.122.911-.238 1.48-.238 2.121 0 3.913 1.266 4.566 3.225.823 2.306-.403 5.153-2.684 6.206l-16.889 8.517c-.101.049-.209.074-.314.074z"/><path fill="#fddbbc" d="M54.222 72.176l16.912-8.528c1.879-.867 3.035-3.325 2.313-5.348-.578-1.735-2.168-2.746-3.903-2.746-.578 0-1.012.145-1.59.289L54.077 61.48"/><path fill="#472b29" d="M54.223 72.877a.7.7 0 0 1-.316-1.325l16.912-8.528c1.644-.759 2.554-2.852 1.969-4.488-.464-1.392-1.735-2.281-3.244-2.281-.389 0-.698.081-1.127.192l-.293.075-13.782 5.607a.7.7 0 1 1-.527-1.297l14.249-5.74c.469-.122.911-.238 1.48-.238 2.122 0 3.914 1.266 4.567 3.225.823 2.306-.403 5.153-2.684 6.206l-16.89 8.518a.71.71 0 0 1-.314.074z"/><path fill="#fddbbc" d="M23.723 52.374l7.805-2.891c1.445-.578 2.891-.723 4.336-.723 2.024 0 4.047.434 5.782 1.445l13.732 7.227c1.735.867 2.313 3.035 1.445 4.77l-.289.578 1.735 1.156 14.165-5.782c.434-.145.867-.289 1.301-.289 1.445 0 2.746.867 3.18 2.168.578 1.59-.289 3.614-1.879 4.336l-16.912 8.528c-.434.289-1.156.434-1.735.434s-1.156-.145-1.735-.434L32.829 62.781l-9.106 3.614"/><path fill="#472b29" d="M56.39 74.033c-.686 0-1.374-.171-2.048-.508l-21.534-9.982-8.827 3.502c-.354.146-.766-.032-.908-.393a.7.7 0 0 1 .393-.908l9.106-3.613c.177-.072.377-.067.552.016L54.95 72.265c.496.247.975.368 1.44.368.505 0 1.071-.133 1.346-.315l16.985-8.571c1.27-.577 1.989-2.227 1.536-3.473-.338-1.013-1.372-1.707-2.521-1.707-.32 0-.688.123-1.079.253l-14.123 5.767c-.215.086-.459.063-.653-.066l-1.734-1.156a.7.7 0 0 1-.237-.896l.289-.578c.72-1.44.212-3.159-1.133-3.831L41.32 50.824c-1.54-.897-3.418-1.364-5.456-1.364-1.656 0-2.913.207-4.076.673l-7.822 2.897a.7.7 0 0 1-.899-.413.7.7 0 0 1 .413-.899l7.806-2.892c1.319-.528 2.736-.767 4.579-.767 2.286 0 4.407.533 6.135 1.541l13.705 7.213c2.021 1.011 2.811 3.571 1.745 5.702l-.013.026.911.607 13.822-5.643c.522-.176 1.019-.341 1.565-.341 1.771 0 3.316 1.063 3.844 2.646.702 1.933-.326 4.32-2.253 5.196l-16.887 8.516c-.537.367-1.422.511-2.049.511z"/><path fill="#ea5167" d="M56 48.147c-2.975-2.091-13.3-9.789-13.3-15.895 0-3.796 2.716-6.551 6.458-6.551 2.35 0 3.979.877 5.627 3.028L56 30.314l1.215-1.585c1.647-2.152 3.277-3.029 5.627-3.029 3.742.002 6.458 2.758 6.458 6.553 0 6.122-10.325 13.808-13.3 15.894z"/><path fill="#472b29" d="M62.841 26.4h0c3.39.001 5.758 2.408 5.758 5.853 0 4.518-6.614 10.788-12.599 15.039-5.985-4.257-12.6-10.531-12.6-15.039 0-3.445 2.368-5.851 5.758-5.851 2.131 0 3.553.772 5.072 2.755l.659.859 1.112 1.45 1.77-2.311c1.518-1.983 2.94-2.755 5.07-2.755m.001-1.4c-2.56 0-4.409.988-6.183 3.303l-.659.861-.659-.859c-1.774-2.315-3.624-3.303-6.183-3.303-4.149 0-7.158 3.05-7.158 7.251C42 39.018 53.541 47.308 56 49c2.461-1.69 14-9.978 14-16.747 0-4.201-3.009-7.251-7.158-7.253h0z"/><path fill="#fddbbc" d="M44.458 60.083l-2-1"/><path fill="#472b29" d="M44.458 60.583a.51.51 0 0 1-.226-.054l-1.997-.999.445-.895 2.003 1.001a.5.5 0 0 1-.225.947z"/><path fill="#fddbbc" d="M56.5 62.5c-.708 1.25-2.484 2.217-5 1l-5.138-2.558"/><path fill="#472b29" d="M53.709 64.56c-.729 0-1.546-.184-2.427-.609l-5.145-2.562a.5.5 0 0 1-.222-.671c.123-.248.425-.35.671-.222l5.131 2.554c2.259 1.093 3.754.254 4.347-.796a.5.5 0 1 1 .871.493c-.586 1.035-1.723 1.813-3.226 1.813z"/><path fill="#ea5167" d="M62.884 36.705l-5.946 5.92"/><path fill="#472b29" d="M56.938 43.125c-.133 0-.267-.053-.364-.158a.5.5 0 0 1 .022-.706l5.922-5.896a.5.5 0 1 1 .732.682l-5.971 5.943c-.096.09-.218.135-.341.135z"/><path fill="#ea5167" d="M65.518 30.49c.472.903.479 2.213-.518 3.697"/><path fill="#472b29" d="M65 34.688c-.097 0-.193-.027-.279-.085a.5.5 0 0 1-.136-.694c.771-1.146.949-2.308.49-3.187a.5.5 0 1 1 .887-.463c.634 1.214.435 2.748-.547 4.208a.5.5 0 0 1-.415.221z"/></svg>