<svg xmlns="http://www.w3.org/2000/svg" viewBox="0 0 24 24" xmlns:v="https://vecta.io/nano" ><g fill="inherit"><path d="M4 12a.5.5 0 0 0 .5.5h8.793l-2.647 2.646A.5.5 0 0 0 11 16a.5.5 0 0 0 .353-.146l3.5-3.5a.5.5 0 0 0 0-.707l-3.5-3.5a.5.5 0 0 0-.707.707l2.647 2.646H4.5a.5.5 0 0 0-.5.5zM17.5 2h-11C5.12 2.001 4.001 3.12 4 4.5v4a.5.5 0 1 0 1 0v-4A1.5 1.5 0 0 1 6.5 3h11A1.5 1.5 0 0 1 19 4.5v15a1.5 1.5 0 0 1-1.5 1.5h-11A1.5 1.5 0 0 1 5 19.5v-4a.5.5 0 1 0-1 0v4c.001 1.38 1.12 2.499 2.5 2.5h11c1.38-.001 2.499-1.12 2.5-2.5v-15c-.001-1.38-1.12-2.499-2.5-2.5z"/></g></svg>