<svg xmlns="http://www.w3.org/2000/svg" version="1.0" viewBox="0 0 512 512"><g fill="inherit"><path d="M167 67l-3 13v6l-3-3c-8-7-20-14-24-14-2 0-3 4-3 16v9l-6 5c-6 5-10 10-11 15-1 3-2 3-17 9-26 11-39 18-39 23 0 3 24 26 30 29 8 4 17 6 24 6 8 0 19 2 21 3 1 1 1 3-1 7-2 5-2 6-2 20 1 12 1 16-1 28-3 18-2 33 2 49a280 280 0 01-9 112c-5 15-7 19-15 26-9 8-13 17-10 21h58c0-2 11-12 14-13 3 0 5-3 7-9a620 620 0 002-79c-2-11-1-19 2-21 2-2 2-2 1-5-3-8-11-11-19-7l-5 2c-4 0-13-10-13-14l3-4c2-3 3-5 1-10s0-9 5-15c4-3 5-5 6-9 1-6 4-14 6-17 2-2 2-2 4-1 3 2 3 2 4 0 1-3 6-9 8-9l5 2c3 3 8 13 9 18 0 3 1 4 7 7 19 9 34 29 39 53l3 11 12 5c12 4 21 9 26 15 3 2 4 4 5 3l2-9 7-19c3-9 4-12 4-17 0-14-6-20-18-20-8 0-13 2-15 6-1 3-1 6 2 14 3 6 2 11-2 15-3 2-4 2-7 2-10-2-15-12-12-27 4-19 18-31 38-31 17 0 30 12 33 31 2 13 0 25-9 48-7 17-8 23-6 31 7 25 8 41 1 54-3 6-10 13-16 17l-6 3h7c8 0 8 0 16-5a113 113 0 0023-19l16 8c16 9 30 15 43 18 6 2 10 2 22 2 14 1 16 0 22-2 14-4 30-16 35-25 8-13 8-33 1-51l-3-6-9 6c-23 16-44 23-70 23-12 0-24-2-34-4-5-2-5-2-4-4 5-17 7-37 4-53-9-50-44-88-104-112l-12-5-1-5c-1-24-12-55-26-77-6-8-6-8-10-25-4-22-8-30-18-42-5-4-12-10-15-10l-2 7z"/><path d="M209 397c-4 14-6 20-13 34l-8 17h6c6 0 6 0 7-3l2-7c3-6 6-7 17-7l9-1-3-7c-3-5-3-6-4-15 0-11-1-12-8-12l-5 1z"/></g></svg>