<svg xmlns="http://www.w3.org/2000/svg" viewBox="0 0 100 100" width="50" height="50"  xmlns:v="https://vecta.io/nano"><circle cx="50.125" cy="49.958" r="37" fill="#cee1f4"/><circle cx="13.125" cy="28.958" r="2" fill="#78a0cf"/><g fill="#f1bc19"><circle cx="77.125" cy="12.958" r="1"/><circle cx="83.125" cy="14.958" r="4"/></g><circle cx="87.125" cy="23.958" r="2" fill="#78a0cf"/><g fill="#fbcd59"><circle cx="81.125" cy="75.958" r="2"/><circle cx="15.125" cy="62.958" r="4"/></g><circle cx="25.125" cy="86.958" r="2" fill="#78a0cf"/><g fill="#fff"><circle cx="18.625" cy="45.458" r="2.5"/><circle cx="80.125" cy="33.958" r="1"/></g><circle cx="18.125" cy="55.958" r="1" fill="#f1bc19"/><path d="M42.5 69h-11a.5.5 0 1 1 0-1h11a.5.5 0 1 1 0 1zm33 0h-30a.5.5 0 1 1 0-1h30a.5.5 0 1 1 0 1zm-47 0h-5a.5.5 0 1 1 0-1h5a.5.5 0 1 1 0 1z" fill="#472b29"/><circle cx="67.5" cy="41.5" r="11.5" fill="#fbcd59"/><path d="M74.706 45.229a.24.24 0 0 1-.108-.025c-.125-.06-.177-.21-.116-.334a7.68 7.68 0 0 0 .769-3.37.25.25 0 1 1 .5 0c0 1.257-.275 2.464-.819 3.588-.044.089-.133.141-.226.141zM62.57 35.242c-.074 0-.148-.033-.197-.097a.25.25 0 0 1 .044-.351 8.22 8.22 0 0 1 6.946-1.521.25.25 0 0 1 .187.3.25.25 0 0 1-.3.186 7.72 7.72 0 0 0-6.526 1.429c-.046.037-.1.054-.154.054zm-2.877 4.491c-.019 0-.038-.002-.057-.007a.25.25 0 0 1-.187-.3c.249-1.064.695-2.049 1.327-2.93a.25.25 0 1 1 .407.292c-.594.827-1.013 1.753-1.247 2.752-.026.115-.129.193-.243.193zm6.302 9.876c-.016 0-.031-.001-.047-.004-1.279-.243-2.499-.798-3.528-1.604a.25.25 0 0 1 .309-.394c.966.757 2.112 1.277 3.313 1.506.136.026.225.157.198.292a.25.25 0 0 1-.245.204zm2.579.07a.25.25 0 0 1-.033-.498 7.72 7.72 0 0 0 4.912-2.719c.09-.106.247-.12.353-.032a.25.25 0 0 1 .032.352 8.22 8.22 0 0 1-5.23 2.894c-.012.002-.023.003-.034.003zM53.4 40.751c-.149-.006-.256-.122-.25-.26.04-.923.178-1.843.41-2.736.034-.133.167-.214.306-.179.133.035.213.171.179.305a12.56 12.56 0 0 0-.395 2.631.25.25 0 0 1-.25.239zm1.565-5.613c-.041 0-.082-.01-.12-.031-.121-.066-.165-.218-.1-.339a13.1 13.1 0 0 1 7.277-6.142c.135-.045.273.026.317.156a.25.25 0 0 1-.155.317c-2.992 1.021-5.478 3.119-7 5.908-.045.084-.131.131-.219.131zM79.17 49.754c-.046 0-.092-.012-.133-.038a.25.25 0 0 1-.079-.345c.473-.754.866-1.559 1.167-2.39a.25.25 0 0 1 .32-.15.25.25 0 0 1 .15.32 13.08 13.08 0 0 1-1.214 2.485c-.047.077-.128.118-.211.118zm-10.61 6.043a.25.25 0 0 1-.25-.244.25.25 0 0 1 .244-.256c3.16-.074 6.162-1.327 8.454-3.529a.25.25 0 0 1 .354.007.25.25 0 0 1-.008.353 13.1 13.1 0 0 1-8.788 3.668zm-21.045-5.563a.5.5 0 0 1-.286-.911c1.81-1.253 3.855-2.358 6.078-3.284a.5.5 0 0 1 .654.269.5.5 0 0 1-.27.654c-2.158.899-4.141 1.97-5.894 3.183a.49.49 0 0 1-.282.089zm-7.2 7.505c-.09 0-.18-.024-.262-.075a.5.5 0 0 1-.163-.688c1.4-2.267 3.168-4.307 5.256-6.064a.5.5 0 1 1 .643.766c-2.005 1.688-3.704 3.648-5.049 5.824-.093.153-.257.237-.425.237zM36.5 69a.5.5 0 0 1-.479-.356c-2.887-9.623-13.545-12.632-13.652-12.661a.5.5 0 1 1 .263-.965c.105.029 9.923 2.801 13.672 11.485.454-2.447 1.173-4.741 2.145-6.841a.5.5 0 0 1 .908.42c-1.181 2.552-1.975 5.405-2.359 8.481a.5.5 0 0 1-.455.436c-.015 0-.029.001-.043.001z" fill="#472b29"/><path fill="#ee3e54" d="M76.798 36.616c-.356-.658-.779-1.256-1.246-1.804-1.552-.812-6.601.56-10.302 2.563C61.23 39.551 58 43 57.465 44.961c.192.584.436 1.16.739 1.719.419.775.927 1.469 1.496 2.09.134.007.269.014.411.015-.111-1.785 3.77-5.069 7.483-7.079C71.234 39.736 76 38 77.765 39.152a10.45 10.45 0 0 0-.967-2.536z"/><path fill="#85cfcc" d="M58.494 47.349a.48.48 0 0 1-.154-.025.5.5 0 0 1-.321-.63c.063-.192 1.605-4.751 8.156-8.148 7.071-3.668 10.971-2.512 11.131-2.461a.5.5 0 0 1 .327.627.5.5 0 0 1-.626.327c-.035-.01-3.711-1.06-10.371 2.395-6.191 3.211-7.652 7.526-7.666 7.569a.5.5 0 0 1-.476.346z"/><g fill="#472b29"><path d="M67.5 31.4c5.569 0 10.1 4.531 10.1 10.1s-4.531 10.1-10.1 10.1-10.1-4.531-10.1-10.1 4.531-10.1 10.1-10.1m0-1.4C61.149 30 56 35.149 56 41.5S61.149 53 67.5 53 79 47.851 79 41.5 73.851 30 67.5 30h0z"/><path d="M60 49.5c-.017 0-.034-.002-.052-.005a.25.25 0 0 1-.193-.295c.034-.165.916-4.078 7.721-7.714 6.796-3.63 10.221-2.617 10.364-2.572a.25.25 0 1 1-.15.478c-.032-.01-3.395-.981-9.979 2.536-6.576 3.513-7.459 7.337-7.467 7.375A.25.25 0 0 1 60 49.5zm-2.417-4.521c-.017 0-.034-.002-.052-.005a.25.25 0 0 1-.193-.295c.034-.165.916-4.078 7.722-7.714 6.795-3.63 10.221-2.617 10.364-2.572a.25.25 0 0 1 .163.313c-.04.131-.181.205-.313.165-.032-.01-3.396-.981-9.979 2.536-6.576 3.513-7.46 7.337-7.468 7.375a.25.25 0 0 1-.244.197zm.911 2.495a.6.6 0 0 1-.193-.031c-.327-.106-.507-.459-.401-.787.053-.161.56-1.628 2.14-3.5.044-.053.124-.059.177-.015s.059.123.015.176c-1.576 1.868-2.072 3.354-2.093 3.416-.063.196.044.409.241.472.186.063.41-.049.472-.241.014-.043 1.448-4.386 7.728-7.642 1.563-.811 3.094-1.441 4.549-1.872.067-.02.136.018.155.084s-.019.136-.085.155c-1.439.427-2.955 1.051-4.504 1.854-6.14 3.184-7.591 7.454-7.604 7.497a.63.63 0 0 1-.597.434zm9.092-9.491c-.047 0-.093-.027-.113-.073-.029-.063-.002-.137.062-.166 6.244-2.856 9.666-1.823 9.81-1.777a.62.62 0 0 1 .408.783c-.049.159-.158.289-.306.366s-.317.093-.477.043c-.058-.016-1.484-.41-4.174.132-.065.014-.133-.031-.146-.098s.029-.134.098-.147c2.747-.554 4.231-.144 4.294-.126.102.031.202.021.289-.025a.38.38 0 0 0 .184-.219.37.37 0 0 0-.245-.47c-.142-.044-3.473-1.05-9.631 1.766-.018.007-.035.011-.053.011zm-6.552 4.396c-.032 0-.063-.012-.088-.036-.049-.049-.05-.128-.001-.177 1.424-1.433 3.163-2.688 5.172-3.73.062-.032.137-.008.169.053s.008.137-.054.169c-1.985 1.03-3.704 2.27-5.109 3.685-.024.024-.057.036-.089.036z"/></g></svg>