<svg xmlns="http://www.w3.org/2000/svg" viewBox="0 0 100 100" width="50" height="50"  xmlns:v="https://vecta.io/nano"><style><![CDATA[.B{fill:#472b29}.C{fill:#ee3e54}.D{fill:#f1bc19}]]></style><circle cx="77" cy="13" r="1" class="D"/><circle cx="50" cy="50" r="37" fill="#e6edb7"/><circle cx="83" cy="15" r="4" class="D"/><circle cx="87" cy="24" r="2" fill="#9f8066"/><g fill="#fbcd59"><circle cx="81" cy="76" r="2"/><circle cx="15" cy="63" r="4"/></g><circle cx="25" cy="87" r="2" fill="#9f8066"/><g fill="#fff"><circle cx="19.5" cy="43.5" r="2.5"/><circle cx="79.5" cy="33.5" r="1.5"/></g><path d="M35.899 50.409l-9.106 12.357 9.128.124 2.822 8.681 9.028-12.252" class="C"/><path d="M38.743 72.271a.69.69 0 0 1-.111-.009.7.7 0 0 1-.555-.475l-2.666-8.205-8.627-.117a.7.7 0 0 1-.617-.388c-.116-.235-.092-.516.063-.727l9.105-12.358a.7.7 0 0 1 1.127.831l-8.297 11.261 7.766.105a.7.7 0 0 1 .656.483l2.4 7.386 8.22-11.155a.7.7 0 0 1 1.127.831l-9.028 12.252c-.133.181-.342.285-.563.285z" class="B"/><path d="M35.921,62.816l4.957-6.728" class="C"/><path d="M35.922 63.166a.35.35 0 0 1-.282-.557l4.957-6.728c.116-.155.336-.188.49-.074a.35.35 0 0 1 .074.489l-4.957 6.728c-.07.093-.175.142-.282.142z" class="B"/><path d="M37.904,60.362l1.731,4.889" class="C"/><path d="M39.634 65.5c-.103 0-.199-.064-.235-.167l-1.73-4.889c-.047-.13.021-.273.152-.319s.272.022.318.152l1.73 4.889c.047.13-.021.273-.152.319-.027.011-.055.015-.083.015z" class="B"/><path d="M39.47,57.999l2.923,8.257" class="C"/><path d="M42.393 66.506c-.103 0-.199-.064-.235-.167l-2.923-8.256c-.047-.13.021-.273.152-.319s.272.022.318.152l2.923 8.256c.047.13-.021.273-.152.319-.027.01-.055.015-.083.015z" class="B"/><path d="M41.799,56.73l2.465,6.966" class="C"/><path d="M44.264 63.946c-.103 0-.199-.064-.235-.167l-2.466-6.966c-.047-.13.021-.273.152-.319s.272.022.318.152l2.466 6.966c.047.13-.021.273-.152.319-.027.01-.055.015-.083.015z" class="B"/><path d="M40.017 66.257l.133.377" class="C"/><path d="M40.15 66.884c-.104 0-.199-.064-.235-.167l-.133-.376a.25.25 0 0 1 .152-.319c.131-.047.272.022.318.153l.133.376a.25.25 0 0 1-.152.319c-.027.009-.056.014-.083.014z" class="B"/><path d="M65.043 50.409l9.105 12.357-9.128.124-2.822 8.681-9.028-12.252" class="C"/><path d="M62.198 72.271c-.221 0-.431-.104-.563-.285l-9.027-12.252a.7.7 0 0 1 1.127-.831l8.22 11.155 2.4-7.386a.7.7 0 0 1 .656-.483l7.766-.105-8.297-11.261a.7.7 0 0 1 1.127-.831l9.105 12.358a.7.7 0 0 1-.554 1.115l-8.627.117-2.667 8.205a.7.7 0 0 1-.555.475.69.69 0 0 1-.111.009z" class="B"/><path d="M65.02,62.816l-4.835-6.562" class="C"/><path d="M65.02 63.166a.35.35 0 0 1-.282-.143l-4.835-6.562a.35.35 0 1 1 .564-.415l4.835 6.562a.35.35 0 0 1-.074.489c-.062.047-.136.069-.208.069z" class="B"/><path d="M63.037,60.362l-1.73,4.889" class="C"/><path d="M61.307 65.5c-.027 0-.056-.004-.083-.014a.25.25 0 0 1-.152-.319l1.729-4.889c.046-.13.188-.199.318-.152a.25.25 0 0 1 .152.319l-1.729 4.889c-.035.102-.132.166-.235.166z" class="B"/><path d="M61.471,57.999l-2.923,8.257" class="C"/><path d="M58.548 66.506c-.027 0-.056-.004-.083-.014-.131-.046-.199-.189-.152-.319l2.923-8.256c.046-.13.188-.2.318-.152s.199.189.152.319l-2.923 8.256c-.035.102-.132.166-.235.166z" class="B"/><path d="M59.143,56.73l-2.466,6.966" class="C"/><path d="M56.676 63.946c-.027 0-.056-.004-.083-.014-.131-.046-.199-.189-.152-.319l2.466-6.966c.045-.13.188-.199.318-.152s.199.189.152.319l-2.466 6.966c-.035.102-.132.166-.235.166z" class="B"/><path d="M60.924 66.257l-.133.377" class="C"/><path d="M60.792 66.884c-.027 0-.056-.004-.083-.014a.25.25 0 0 1-.152-.319l.133-.376c.046-.13.188-.2.318-.153a.25.25 0 0 1 .152.319l-.133.376c-.036.103-.132.167-.235.167z" class="B"/><path fill="#fbcd59" d="M50.499 25.744a16.76 16.76 0 0 0-16.762 16.75 16.76 16.76 0 0 0 16.75 16.762c9.266.003 16.771-7.496 16.774-16.75a16.76 16.76 0 0 0-16.75-16.762z"/><path d="M50.499 60C40.851 60 33 52.149 33 42.5S40.851 25 50.499 25 68 32.851 68 42.5 60.149 60 50.499 60zm0-33.513c-8.829 0-16.011 7.183-16.011 16.013s7.183 16.013 16.011 16.013S66.512 51.329 66.512 42.5s-7.184-16.013-16.013-16.013zM63.98 47.548a.25.25 0 0 1-.089-.016c-.138-.049-.21-.2-.16-.339.541-1.509.815-3.094.815-4.709 0-7.698-6.263-13.962-13.962-13.962-.146 0-.265-.119-.265-.265s.119-.265.265-.265c7.991 0 14.492 6.5 14.492 14.492 0 1.677-.285 3.321-.845 4.888-.04.11-.143.176-.251.176zm-22.103 6.454c-.057 0-.113-.018-.162-.055-3.573-2.769-5.623-6.947-5.623-11.462a14.49 14.49 0 0 1 6.328-11.974c.121-.083.286-.052.368.069s.052.286-.069.369a13.96 13.96 0 0 0-6.095 11.535c0 4.351 1.975 8.375 5.418 11.043.116.089.137.257.047.372-.055.068-.133.103-.212.103zm2.388 1.498c-.039 0-.08-.008-.118-.028-.373-.185-.739-.387-1.09-.601-.125-.076-.164-.24-.089-.364s.243-.164.365-.088c.338.206.692.401 1.051.579.132.065.185.224.119.355-.048.093-.141.147-.238.147zm6.318 1.476a14.49 14.49 0 0 1-4.304-.65c-.14-.043-.217-.192-.174-.332s.192-.218.331-.175a13.95 13.95 0 0 0 4.146.626c.146 0 .265.119.265.265s-.119.266-.264.266z" class="B"/><path fill="#e0a825" d="M50.578 36.788l1.851 3.749 4.138.601-2.994 2.919.707 4.122-3.702-1.947-3.701 1.947.707-4.122-2.995-2.919 4.138-.601 1.851-3.749z"/><path d="M46.876 48.615c-.089 0-.18-.027-.256-.083a.44.44 0 0 1-.173-.425l.668-3.896-2.83-2.76c-.119-.116-.162-.288-.111-.446s.186-.272.35-.296l3.912-.569 1.749-3.546c.145-.297.634-.297.779 0l1.75 3.546 3.912.569c.164.024.299.138.35.296s.009.33-.111.446l-2.83 2.76.668 3.896c.027.163-.039.328-.173.425s-.311.109-.458.034l-3.497-1.84-3.498 1.839c-.062.034-.131.05-.201.05zm3.702-2.816c.07 0 .139.017.202.05l2.923 1.537-.558-3.254c-.025-.14.022-.284.125-.385l2.363-2.305-3.267-.475a.44.44 0 0 1-.327-.237l-1.462-2.959-1.461 2.959a.43.43 0 0 1-.327.237l-3.267.475 2.363 2.305c.103.099.149.243.125.385l-.558 3.254 2.922-1.536c.064-.034.135-.051.204-.051z" class="B"/><path d="M74.591 42.878l.89 1.802 1.989.289-1.439 1.403.34 1.981-1.78-.935-1.779.935.34-1.981-1.439-1.403 1.989-.289.889-1.802z" class="D"/><path d="M76.371 48.703a.35.35 0 0 1-.163-.04l-1.616-.85-1.616.85a.35.35 0 0 1-.369-.027c-.107-.079-.161-.211-.139-.342l.309-1.8-1.308-1.274a.35.35 0 0 1-.089-.358c.041-.127.15-.219.282-.238l1.808-.263.809-1.637c.117-.239.51-.239.627 0l.809 1.637 1.808.263c.132.019.241.111.282.238s.007.266-.089.358l-1.308 1.274.309 1.8a.35.35 0 0 1-.139.342c-.063.045-.135.067-.207.067zm-1.78-1.635a.36.36 0 0 1 .163.04l1.151.605-.22-1.282a.35.35 0 0 1 .101-.31l.932-.908-1.288-.187c-.113-.017-.212-.088-.263-.191l-.576-1.167-.576 1.167c-.051.104-.149.175-.263.191l-1.288.187.932.908a.35.35 0 0 1 .101.31l-.22 1.282 1.151-.605a.35.35 0 0 1 .163-.04z" class="B"/><path d="M27.121 29.995l1.359 2.754 3.039.442-2.199 2.143.519 3.027-2.718-1.429-2.718 1.429.519-3.027-2.199-2.143 3.039-.442 1.359-2.754z" class="D"/><path d="M29.84 38.711a.34.34 0 0 1-.163-.041l-2.556-1.343-2.555 1.343a.35.35 0 0 1-.369-.026c-.107-.078-.161-.211-.139-.342l.487-2.846-2.066-2.015a.35.35 0 0 1 .193-.597l2.856-.415 1.278-2.589c.117-.239.51-.239.627 0l1.278 2.589 2.857.415c.132.019.241.111.282.238a.35.35 0 0 1-.089.359l-2.067 2.015.488 2.846a.35.35 0 0 1-.139.342c-.059.045-.131.067-.203.067zm-6.365-5.276l1.69 1.648a.35.35 0 0 1 .101.31l-.398 2.328 2.09-1.099c.102-.054.225-.054.326 0l2.091 1.099-.399-2.328a.35.35 0 0 1 .101-.31l1.691-1.648-2.338-.34c-.113-.017-.212-.088-.263-.191l-1.046-2.118-1.046 2.118c-.051.104-.149.175-.263.191l-2.337.34z" class="B"/><path d="M46.287 70.976l1.099 2.227 2.459.358-1.779 1.734.42 2.449-2.199-1.157-2.199 1.157.42-2.449-1.779-1.734 2.458-.358 1.1-2.227z" class="D"/><path d="M48.486 78.094a.34.34 0 0 1-.163-.041l-2.036-1.07-2.036 1.07a.35.35 0 0 1-.369-.026c-.107-.078-.161-.211-.139-.342l.389-2.268-1.647-1.605a.35.35 0 0 1-.089-.358c.041-.127.15-.219.282-.238l2.277-.331 1.019-2.063c.117-.239.51-.239.627 0l1.019 2.063 2.277.331c.132.019.241.111.282.238s.007.266-.089.358l-1.647 1.605.389 2.268a.35.35 0 0 1-.139.342.36.36 0 0 1-.207.067zm-2.199-1.857a.35.35 0 0 1 .163.041l1.571.826-.3-1.75a.35.35 0 0 1 .101-.31l1.271-1.239-1.758-.255c-.113-.017-.212-.088-.263-.191l-.786-1.592-.786 1.592c-.051.104-.149.175-.263.191l-1.758.255 1.271 1.239a.35.35 0 0 1 .101.31l-.3 1.75 1.571-.826a.36.36 0 0 1 .165-.041z" class="B"/></svg>