<svg version="1.0" xmlns="http://www.w3.org/2000/svg" width="512pt" height="512pt" viewBox="0 0 512 512"><g transform="translate(0.000000,512.000000) scale(0.100000,-0.100000)" fill="inherit" stroke="none"><path d="M1666 4448c-9-40-19-99-22-131l-7-58-31 29c-80 74-192 142-234 142-26 0-34-42-31-162l2-90-59-48c-67-55-1e2-96-118-146-11-34-18-38-166-98-256-103-390-181-390-228 0-32 235-260 3e2-290 75-36 166-58 236-58 85 0 197-18 212-34 11-11 10-22-9-65-21-49-22-61-15-199 6-125 4-167-15-282-28-177-23-327 17-485 26-102 28-125 28-305 1-272-38-535-120-814-47-158-69-2e2-148-269-91-81-131-168-94-205 15-15 578-17 578-2 0 21 107 118 138 125 33 7 54 36 74 99 12 39 37 436 38 581 0 61-7 151-16 2e2-21 117-15 192 16 217 20 16 21 21 10 47-32 79-114 110-188 72-23-12-48-21-55-21-34 0-127 103-127 140 0 9 11 29 25 44 28 30 30 48 14 95-18 52-3 95 50 148 38 38 50 57 56 93 10 60 41 139 65 169 19 22 21 22 44 7 23-15 25-14 31 5 11 34 66 89 89 89 12 0 33-10 46-22 26-24 75-127 85-178 6-31 14-39 73-67 193-92 344-295 394-531 11-53 23-103 27-110 3-7 56-30 117-50 127-43 209-89 265-150 24-25 41-37 44-30 2 7 14 47 25 88 12 41 42 125 66 187 36 91 44 123 44 176 0 132-59 197-179 197-79 0-136-23-151-61-14-32-9-59 22-135 27-67 19-113-24-149-26-22-39-26-66-21-102 16-148 120-118 264 41 195 180 312 372 312 177 0 301-116 334-313 21-123-2-242-94-478-66-171-75-224-52-307 71-256 73-410 7-541-29-57-99-127-165-166l-60-35h78c76 0 78 0 154 52 106 71 2e2 146 213 169 5 10 16 19 24 19 7 0 78-36 157-79 154-86 299-148 425-183 63-18 106-22 228-22 132-1 158 2 220 23 136 45 293 160 348 253 74 128 77 331 6 511-11 29-22 53-24 55-2 2-45-26-97-62-228-158-439-226-697-226-117 0-239 16-339 45-49 15-53 18-47 38 54 168 70 363 41 529-84 497-437 877-1039 1118l-122 49-2 48c-12 242-122 558-268 773-55 81-56 84-91 253-45 220-80 297-189 416-41 45-119 101-141 101-7 0-19-31-28-72z"/><path d="M2086 1148c-38-142-59-199-129-340l-82-168h62c60 0 63 1 68 28 4 15 15 46 25 69 28 61 64 77 173 76 48-1 87 3 87 8 0 5-14 34-31 65-28 49-32 67-36 152-6 113-12 122-85 122-31 0-50-5-52-12z"/></g></svg>