<?xml version="1.0" standalone="no"?>
<!DOCTYPE svg PUBLIC "-//W3C//DTD SVG 20010904//EN"
 "http://www.w3.org/TR/2001/REC-SVG-20010904/DTD/svg10.dtd">
<svg version="1.0" xmlns="http://www.w3.org/2000/svg"
 width="512.000000pt" height="512.000000pt" viewBox="0 0 512.000000 512.000000"
 preserveAspectRatio="xMidYMid meet">
<metadata>
Created by potrace 1.14, written by Peter Selinger 2001-2017
</metadata>
<g transform="translate(0.000000,512.000000) scale(0.100000,-0.100000)"
fill="#000000" stroke="none">
<path d="M1675 4468 c-8 -29 -21 -84 -27 -123 -7 -38 -13 -71 -14 -73 -1 -2
-16 9 -34 25 -85 77 -221 146 -242 125 -7 -7 -13 -59 -16 -124 l-4 -113 -69
-66 c-41 -39 -77 -84 -89 -111 -20 -46 -45 -69 -90 -83 -14 -4 -38 -13 -55
-21 -16 -7 -77 -34 -135 -59 -183 -80 -290 -147 -290 -180 0 -11 12 -27 59
-80 38 -42 158 -153 203 -187 26 -20 75 -45 110 -57 62 -20 96 -25 228 -36 75
-6 138 -19 151 -32 5 -5 0 -34 -12 -67 -18 -51 -20 -79 -17 -220 2 -152 -1
-199 -21 -324 -9 -58 -7 -246 4 -302 3 -19 11 -55 16 -80 19 -83 24 -164 24
-375 0 -188 -6 -300 -19 -375 -3 -14 -7 -43 -10 -65 -7 -50 -14 -92 -22 -125
-3 -14 -8 -36 -11 -50 -8 -43 -53 -198 -74 -258 -26 -68 -53 -108 -130 -185
-62 -62 -102 -133 -97 -169 l3 -23 288 -3 289 -2 58 57 c32 31 73 64 92 72 60
29 72 77 85 341 8 188 8 391 0 551 -8 137 -3 175 27 205 32 31 -18 105 -83
125 -35 10 -48 9 -100 -11 l-61 -22 -35 27 c-20 14 -48 45 -62 67 -22 32 -25
43 -15 56 39 56 45 75 34 122 -16 70 -3 103 71 183 15 15 31 46 37 70 36 138
67 194 100 177 27 -14 38 -12 44 8 3 9 19 32 36 50 32 36 56 36 94 3 23 -20
71 -114 85 -167 10 -36 18 -45 71 -73 198 -106 313 -259 385 -513 19 -67 38
-125 42 -129 5 -4 51 -24 103 -44 131 -51 199 -89 256 -141 27 -24 52 -44 56
-44 8 0 15 21 23 69 3 19 10 41 15 51 24 46 97 281 99 321 7 144 -63 216 -202
206 -120 -8 -152 -54 -116 -167 30 -93 31 -107 14 -144 -28 -58 -89 -72 -145
-33 -48 31 -71 77 -75 146 -7 106 34 222 103 294 66 69 138 103 243 113 210
22 364 -133 373 -376 5 -116 -22 -223 -113 -458 -21 -56 -39 -105 -40 -107 0
-3 -3 -25 -6 -49 -6 -36 0 -81 20 -166 12 -52 16 -69 20 -90 3 -14 8 -38 11
-55 12 -61 10 -191 -3 -245 -8 -30 -26 -75 -40 -100 -32 -55 -121 -143 -171
-170 l-37 -19 70 1 c47 0 82 6 105 18 57 29 171 114 229 169 l53 51 162 -83
c176 -92 305 -146 406 -172 87 -23 94 -23 255 -26 123 -2 148 1 205 21 190 66
327 181 381 317 19 47 23 78 23 168 1 137 -15 219 -60 307 l-14 27 -107 -70
c-246 -162 -425 -218 -688 -214 -138 3 -187 6 -255 20 -14 3 -36 7 -50 10 -14
3 -37 10 -51 15 l-26 11 18 65 c18 67 22 88 35 189 42 340 -97 711 -370 987
-80 80 -251 216 -324 255 -20 11 -68 37 -105 58 -38 21 -134 66 -215 101 -80
35 -149 69 -153 76 -4 7 -10 47 -13 88 -20 220 -129 523 -263 728 -48 74 -57
97 -83 210 -42 176 -58 236 -79 282 -35 77 -103 165 -164 212 -91 69 -93 69
-112 6z"/>
<path d="M2100 1150 c-6 -3 -25 -52 -44 -107 -30 -88 -66 -172 -152 -353 l-22
-45 50 -3 c27 -2 56 2 63 8 8 7 21 36 29 65 21 71 45 85 163 95 52 5 96 10 99
12 2 2 -9 31 -25 65 -21 43 -32 87 -39 152 -5 50 -15 98 -22 106 -13 15 -78
18 -100 5z"/>
</g>
</svg>
